<mxfile host="app.diagrams.net" agent="Mozilla/5.0 (Windows NT 10.0; Win64; x64) AppleWebKit/537.36 (KHTML, like Gecko) Chrome/140.0.0.0 Safari/537.36 Edg/140.0.0.0" version="28.2.5">
  <diagram name="Página-1" id="eW5Zq9f6MHKDBc7mzz1A">
    <mxGraphModel dx="567" dy="314" grid="1" gridSize="10" guides="1" tooltips="1" connect="1" arrows="1" fold="1" page="1" pageScale="1" pageWidth="827" pageHeight="1169" background="none" math="0" shadow="0">
      <root>
        <mxCell id="0" />
        <mxCell id="1" parent="0" />
        <mxCell id="ac73zGqqMka_eKkwahau-3" value="" style="edgeStyle=orthogonalEdgeStyle;rounded=0;orthogonalLoop=1;jettySize=auto;html=1;" edge="1" parent="1" source="ac73zGqqMka_eKkwahau-1" target="ac73zGqqMka_eKkwahau-2">
          <mxGeometry relative="1" as="geometry">
            <Array as="points">
              <mxPoint x="60" y="50" />
              <mxPoint x="105" y="50" />
            </Array>
          </mxGeometry>
        </mxCell>
        <mxCell id="ac73zGqqMka_eKkwahau-1" value="Inicio" style="ellipse;whiteSpace=wrap;html=1;" vertex="1" parent="1">
          <mxGeometry x="10" y="10" width="100" height="30" as="geometry" />
        </mxCell>
        <mxCell id="ac73zGqqMka_eKkwahau-5" value="" style="edgeStyle=orthogonalEdgeStyle;rounded=0;orthogonalLoop=1;jettySize=auto;html=1;" edge="1" parent="1" source="ac73zGqqMka_eKkwahau-2" target="ac73zGqqMka_eKkwahau-4">
          <mxGeometry relative="1" as="geometry" />
        </mxCell>
        <mxCell id="ac73zGqqMka_eKkwahau-2" value="LER n=0;" style="shape=parallelogram;perimeter=parallelogramPerimeter;whiteSpace=wrap;html=1;fixedSize=1;" vertex="1" parent="1">
          <mxGeometry x="15" y="70" width="210" height="30" as="geometry" />
        </mxCell>
        <mxCell id="ac73zGqqMka_eKkwahau-62" value="" style="edgeStyle=orthogonalEdgeStyle;rounded=0;orthogonalLoop=1;jettySize=auto;html=1;" edge="1" parent="1" source="ac73zGqqMka_eKkwahau-4" target="ac73zGqqMka_eKkwahau-61">
          <mxGeometry relative="1" as="geometry">
            <Array as="points">
              <mxPoint x="160" y="180" />
              <mxPoint x="52" y="180" />
            </Array>
          </mxGeometry>
        </mxCell>
        <mxCell id="ac73zGqqMka_eKkwahau-4" value="Escrever &quot;Diz um número de 1 a 7 para dizer o dia da semana: &quot; &amp;amp;&amp;amp; LER n" style="shape=parallelogram;perimeter=parallelogramPerimeter;whiteSpace=wrap;html=1;fixedSize=1;" vertex="1" parent="1">
          <mxGeometry y="130" width="320" height="40" as="geometry" />
        </mxCell>
        <mxCell id="ac73zGqqMka_eKkwahau-6" value="Fim" style="ellipse;whiteSpace=wrap;html=1;" vertex="1" parent="1">
          <mxGeometry x="100" y="450" width="100" height="30" as="geometry" />
        </mxCell>
        <mxCell id="ac73zGqqMka_eKkwahau-8" value="" style="edgeStyle=orthogonalEdgeStyle;rounded=0;orthogonalLoop=1;jettySize=auto;html=1;" edge="1" parent="1" source="ac73zGqqMka_eKkwahau-7" target="ac73zGqqMka_eKkwahau-6">
          <mxGeometry relative="1" as="geometry" />
        </mxCell>
        <mxCell id="ac73zGqqMka_eKkwahau-7" value="Escrever &quot;Erro número inválido.&quot;" style="shape=parallelogram;perimeter=parallelogramPerimeter;whiteSpace=wrap;html=1;fixedSize=1;" vertex="1" parent="1">
          <mxGeometry x="5" y="330" width="220" height="30" as="geometry" />
        </mxCell>
        <mxCell id="ac73zGqqMka_eKkwahau-63" value="" style="edgeStyle=orthogonalEdgeStyle;rounded=0;orthogonalLoop=1;jettySize=auto;html=1;" edge="1" parent="1" source="ac73zGqqMka_eKkwahau-61" target="ac73zGqqMka_eKkwahau-7">
          <mxGeometry relative="1" as="geometry" />
        </mxCell>
        <mxCell id="ac73zGqqMka_eKkwahau-64" value="Sim" style="edgeLabel;html=1;align=center;verticalAlign=middle;resizable=0;points=[];" vertex="1" connectable="0" parent="ac73zGqqMka_eKkwahau-63">
          <mxGeometry x="-0.3903" relative="1" as="geometry">
            <mxPoint as="offset" />
          </mxGeometry>
        </mxCell>
        <mxCell id="ac73zGqqMka_eKkwahau-66" value="" style="edgeStyle=orthogonalEdgeStyle;rounded=0;orthogonalLoop=1;jettySize=auto;html=1;" edge="1" parent="1" source="ac73zGqqMka_eKkwahau-61" target="ac73zGqqMka_eKkwahau-65">
          <mxGeometry relative="1" as="geometry" />
        </mxCell>
        <mxCell id="ac73zGqqMka_eKkwahau-67" value="Não" style="edgeLabel;html=1;align=center;verticalAlign=middle;resizable=0;points=[];" vertex="1" connectable="0" parent="ac73zGqqMka_eKkwahau-66">
          <mxGeometry x="-0.4942" y="-1" relative="1" as="geometry">
            <mxPoint as="offset" />
          </mxGeometry>
        </mxCell>
        <mxCell id="ac73zGqqMka_eKkwahau-61" value="n == 0 || n &amp;gt; 7" style="rhombus;whiteSpace=wrap;html=1;" vertex="1" parent="1">
          <mxGeometry x="10" y="200" width="85" height="90" as="geometry" />
        </mxCell>
        <mxCell id="ac73zGqqMka_eKkwahau-69" style="edgeStyle=orthogonalEdgeStyle;rounded=0;orthogonalLoop=1;jettySize=auto;html=1;" edge="1" parent="1">
          <mxGeometry relative="1" as="geometry">
            <mxPoint x="340.01" y="190" as="targetPoint" />
            <mxPoint x="249.99821796759943" y="245.01030927835052" as="sourcePoint" />
            <Array as="points">
              <mxPoint x="250" y="190" />
            </Array>
          </mxGeometry>
        </mxCell>
        <mxCell id="ac73zGqqMka_eKkwahau-70" value="1" style="edgeLabel;html=1;align=center;verticalAlign=middle;resizable=0;points=[];" vertex="1" connectable="0" parent="ac73zGqqMka_eKkwahau-69">
          <mxGeometry x="0.2584" y="-1" relative="1" as="geometry">
            <mxPoint as="offset" />
          </mxGeometry>
        </mxCell>
        <mxCell id="ac73zGqqMka_eKkwahau-71" style="edgeStyle=orthogonalEdgeStyle;rounded=0;orthogonalLoop=1;jettySize=auto;html=1;" edge="1" parent="1" source="ac73zGqqMka_eKkwahau-65">
          <mxGeometry relative="1" as="geometry">
            <mxPoint x="340" y="210" as="targetPoint" />
            <Array as="points">
              <mxPoint x="260" y="245" />
              <mxPoint x="260" y="210" />
              <mxPoint x="340" y="210" />
            </Array>
          </mxGeometry>
        </mxCell>
        <mxCell id="ac73zGqqMka_eKkwahau-73" value="2" style="edgeLabel;html=1;align=center;verticalAlign=middle;resizable=0;points=[];" vertex="1" connectable="0" parent="ac73zGqqMka_eKkwahau-71">
          <mxGeometry x="0.0205" relative="1" as="geometry">
            <mxPoint as="offset" />
          </mxGeometry>
        </mxCell>
        <mxCell id="ac73zGqqMka_eKkwahau-74" style="edgeStyle=orthogonalEdgeStyle;rounded=0;orthogonalLoop=1;jettySize=auto;html=1;" edge="1" parent="1" source="ac73zGqqMka_eKkwahau-65">
          <mxGeometry relative="1" as="geometry">
            <mxPoint x="339.9999999999999" y="230" as="targetPoint" />
          </mxGeometry>
        </mxCell>
        <mxCell id="ac73zGqqMka_eKkwahau-75" value="3" style="edgeLabel;html=1;align=center;verticalAlign=middle;resizable=0;points=[];" vertex="1" connectable="0" parent="ac73zGqqMka_eKkwahau-74">
          <mxGeometry x="0.3849" y="1" relative="1" as="geometry">
            <mxPoint as="offset" />
          </mxGeometry>
        </mxCell>
        <mxCell id="ac73zGqqMka_eKkwahau-76" style="edgeStyle=orthogonalEdgeStyle;rounded=0;orthogonalLoop=1;jettySize=auto;html=1;" edge="1" parent="1" source="ac73zGqqMka_eKkwahau-65">
          <mxGeometry relative="1" as="geometry">
            <mxPoint x="339.9999999999999" y="260" as="targetPoint" />
          </mxGeometry>
        </mxCell>
        <mxCell id="ac73zGqqMka_eKkwahau-77" value="4" style="edgeLabel;html=1;align=center;verticalAlign=middle;resizable=0;points=[];" vertex="1" connectable="0" parent="ac73zGqqMka_eKkwahau-76">
          <mxGeometry x="0.3569" y="-1" relative="1" as="geometry">
            <mxPoint as="offset" />
          </mxGeometry>
        </mxCell>
        <mxCell id="ac73zGqqMka_eKkwahau-78" style="edgeStyle=orthogonalEdgeStyle;rounded=0;orthogonalLoop=1;jettySize=auto;html=1;" edge="1" parent="1" source="ac73zGqqMka_eKkwahau-65">
          <mxGeometry relative="1" as="geometry">
            <mxPoint x="340" y="280" as="targetPoint" />
            <Array as="points">
              <mxPoint x="260" y="245" />
              <mxPoint x="260" y="280" />
            </Array>
          </mxGeometry>
        </mxCell>
        <mxCell id="ac73zGqqMka_eKkwahau-79" value="5" style="edgeLabel;html=1;align=center;verticalAlign=middle;resizable=0;points=[];" vertex="1" connectable="0" parent="ac73zGqqMka_eKkwahau-78">
          <mxGeometry x="0.4927" y="-1" relative="1" as="geometry">
            <mxPoint as="offset" />
          </mxGeometry>
        </mxCell>
        <mxCell id="ac73zGqqMka_eKkwahau-80" style="edgeStyle=orthogonalEdgeStyle;rounded=0;orthogonalLoop=1;jettySize=auto;html=1;" edge="1" parent="1" source="ac73zGqqMka_eKkwahau-65">
          <mxGeometry relative="1" as="geometry">
            <mxPoint x="339.9999999999999" y="300" as="targetPoint" />
            <Array as="points">
              <mxPoint x="250" y="300" />
            </Array>
          </mxGeometry>
        </mxCell>
        <mxCell id="ac73zGqqMka_eKkwahau-81" value="6" style="edgeLabel;html=1;align=center;verticalAlign=middle;resizable=0;points=[];" vertex="1" connectable="0" parent="ac73zGqqMka_eKkwahau-80">
          <mxGeometry x="0.5789" y="1" relative="1" as="geometry">
            <mxPoint as="offset" />
          </mxGeometry>
        </mxCell>
        <mxCell id="ac73zGqqMka_eKkwahau-82" style="edgeStyle=orthogonalEdgeStyle;rounded=0;orthogonalLoop=1;jettySize=auto;html=1;" edge="1" parent="1" source="ac73zGqqMka_eKkwahau-65">
          <mxGeometry relative="1" as="geometry">
            <mxPoint x="339.9999999999999" y="320" as="targetPoint" />
            <Array as="points">
              <mxPoint x="250" y="320" />
            </Array>
          </mxGeometry>
        </mxCell>
        <mxCell id="ac73zGqqMka_eKkwahau-83" value="7" style="edgeLabel;html=1;align=center;verticalAlign=middle;resizable=0;points=[];" vertex="1" connectable="0" parent="ac73zGqqMka_eKkwahau-82">
          <mxGeometry x="0.5087" y="-1" relative="1" as="geometry">
            <mxPoint as="offset" />
          </mxGeometry>
        </mxCell>
        <mxCell id="ac73zGqqMka_eKkwahau-65" value="Switch case n" style="shape=hexagon;perimeter=hexagonPerimeter2;whiteSpace=wrap;html=1;fixedSize=1;" vertex="1" parent="1">
          <mxGeometry x="130" y="227.5" width="120" height="35" as="geometry" />
        </mxCell>
        <mxCell id="ac73zGqqMka_eKkwahau-68" style="edgeStyle=orthogonalEdgeStyle;rounded=0;orthogonalLoop=1;jettySize=auto;html=1;exitX=0.5;exitY=1;exitDx=0;exitDy=0;" edge="1" parent="1" source="ac73zGqqMka_eKkwahau-65" target="ac73zGqqMka_eKkwahau-65">
          <mxGeometry relative="1" as="geometry" />
        </mxCell>
        <mxCell id="ac73zGqqMka_eKkwahau-85" style="edgeStyle=orthogonalEdgeStyle;rounded=0;orthogonalLoop=1;jettySize=auto;html=1;entryX=1;entryY=0.5;entryDx=0;entryDy=0;" edge="1" parent="1" source="ac73zGqqMka_eKkwahau-84" target="ac73zGqqMka_eKkwahau-6">
          <mxGeometry relative="1" as="geometry">
            <Array as="points">
              <mxPoint x="520" y="190" />
              <mxPoint x="520" y="465" />
            </Array>
          </mxGeometry>
        </mxCell>
        <mxCell id="ac73zGqqMka_eKkwahau-84" value="Escrever &quot;Segunda-feira&quot;" style="shape=parallelogram;perimeter=parallelogramPerimeter;whiteSpace=wrap;html=1;fixedSize=1;" vertex="1" parent="1">
          <mxGeometry x="330" y="180" width="170" height="20" as="geometry" />
        </mxCell>
        <mxCell id="ac73zGqqMka_eKkwahau-92" style="edgeStyle=orthogonalEdgeStyle;rounded=0;orthogonalLoop=1;jettySize=auto;html=1;entryX=1;entryY=0.5;entryDx=0;entryDy=0;" edge="1" parent="1" source="ac73zGqqMka_eKkwahau-86" target="ac73zGqqMka_eKkwahau-6">
          <mxGeometry relative="1" as="geometry">
            <Array as="points">
              <mxPoint x="520" y="210" />
              <mxPoint x="520" y="465" />
            </Array>
          </mxGeometry>
        </mxCell>
        <mxCell id="ac73zGqqMka_eKkwahau-86" value="Escrever &quot;Terça-feira&quot;" style="shape=parallelogram;perimeter=parallelogramPerimeter;whiteSpace=wrap;html=1;fixedSize=1;" vertex="1" parent="1">
          <mxGeometry x="328" y="200" width="170" height="20" as="geometry" />
        </mxCell>
        <mxCell id="ac73zGqqMka_eKkwahau-93" style="edgeStyle=orthogonalEdgeStyle;rounded=0;orthogonalLoop=1;jettySize=auto;html=1;entryX=1;entryY=0.5;entryDx=0;entryDy=0;" edge="1" parent="1" source="ac73zGqqMka_eKkwahau-87" target="ac73zGqqMka_eKkwahau-6">
          <mxGeometry relative="1" as="geometry">
            <Array as="points">
              <mxPoint x="520" y="230" />
              <mxPoint x="520" y="465" />
            </Array>
          </mxGeometry>
        </mxCell>
        <mxCell id="ac73zGqqMka_eKkwahau-87" value="Escrever &quot;Quarta-feira&quot;" style="shape=parallelogram;perimeter=parallelogramPerimeter;whiteSpace=wrap;html=1;fixedSize=1;" vertex="1" parent="1">
          <mxGeometry x="328" y="220" width="170" height="20" as="geometry" />
        </mxCell>
        <mxCell id="ac73zGqqMka_eKkwahau-94" style="edgeStyle=orthogonalEdgeStyle;rounded=0;orthogonalLoop=1;jettySize=auto;html=1;entryX=1;entryY=0.5;entryDx=0;entryDy=0;" edge="1" parent="1" source="ac73zGqqMka_eKkwahau-88" target="ac73zGqqMka_eKkwahau-6">
          <mxGeometry relative="1" as="geometry">
            <Array as="points">
              <mxPoint x="520" y="260" />
              <mxPoint x="520" y="465" />
            </Array>
          </mxGeometry>
        </mxCell>
        <mxCell id="ac73zGqqMka_eKkwahau-88" value="Escrever &quot;Quinta-feira&quot;" style="shape=parallelogram;perimeter=parallelogramPerimeter;whiteSpace=wrap;html=1;fixedSize=1;" vertex="1" parent="1">
          <mxGeometry x="330" y="250" width="170" height="20" as="geometry" />
        </mxCell>
        <mxCell id="ac73zGqqMka_eKkwahau-95" style="edgeStyle=orthogonalEdgeStyle;rounded=0;orthogonalLoop=1;jettySize=auto;html=1;entryX=1;entryY=0.5;entryDx=0;entryDy=0;" edge="1" parent="1" source="ac73zGqqMka_eKkwahau-89" target="ac73zGqqMka_eKkwahau-6">
          <mxGeometry relative="1" as="geometry">
            <Array as="points">
              <mxPoint x="520" y="280" />
              <mxPoint x="520" y="465" />
            </Array>
          </mxGeometry>
        </mxCell>
        <mxCell id="ac73zGqqMka_eKkwahau-89" value="Escrever &quot;Sexta-feira&quot;" style="shape=parallelogram;perimeter=parallelogramPerimeter;whiteSpace=wrap;html=1;fixedSize=1;" vertex="1" parent="1">
          <mxGeometry x="330" y="270" width="170" height="20" as="geometry" />
        </mxCell>
        <mxCell id="ac73zGqqMka_eKkwahau-96" style="edgeStyle=orthogonalEdgeStyle;rounded=0;orthogonalLoop=1;jettySize=auto;html=1;entryX=1;entryY=0.5;entryDx=0;entryDy=0;" edge="1" parent="1" source="ac73zGqqMka_eKkwahau-90" target="ac73zGqqMka_eKkwahau-6">
          <mxGeometry relative="1" as="geometry">
            <Array as="points">
              <mxPoint x="520" y="300" />
              <mxPoint x="520" y="465" />
            </Array>
          </mxGeometry>
        </mxCell>
        <mxCell id="ac73zGqqMka_eKkwahau-90" value="Escrever &quot;Sábado&quot;" style="shape=parallelogram;perimeter=parallelogramPerimeter;whiteSpace=wrap;html=1;fixedSize=1;" vertex="1" parent="1">
          <mxGeometry x="330" y="290" width="170" height="20" as="geometry" />
        </mxCell>
        <mxCell id="ac73zGqqMka_eKkwahau-97" style="edgeStyle=orthogonalEdgeStyle;rounded=0;orthogonalLoop=1;jettySize=auto;html=1;entryX=1;entryY=0.5;entryDx=0;entryDy=0;" edge="1" parent="1" source="ac73zGqqMka_eKkwahau-91" target="ac73zGqqMka_eKkwahau-6">
          <mxGeometry relative="1" as="geometry">
            <Array as="points">
              <mxPoint x="520" y="320" />
              <mxPoint x="520" y="465" />
            </Array>
          </mxGeometry>
        </mxCell>
        <mxCell id="ac73zGqqMka_eKkwahau-91" value="Escrever &quot;Domingo&quot;" style="shape=parallelogram;perimeter=parallelogramPerimeter;whiteSpace=wrap;html=1;fixedSize=1;" vertex="1" parent="1">
          <mxGeometry x="330" y="310" width="170" height="20" as="geometry" />
        </mxCell>
      </root>
    </mxGraphModel>
  </diagram>
</mxfile>
